<svg xmlns="http://www.w3.org/2000/svg" width="118.017" height="23.776" viewBox="0 0 118.017 23.776">
  <g id="Grupo_2227" data-name="Grupo 2227" transform="translate(-91.716 -13.963)">
    <path id="Trazado_3971" data-name="Trazado 3971" d="M101.147,32.7a9.143,9.143,0,0,1-3.129-3.54h6.255A9.115,9.115,0,0,1,101.147,32.7Zm-4.034-6.6h8.066a8.716,8.716,0,0,1-.781,2.837h-6.5A8.687,8.687,0,0,1,97.113,26.091ZM97,22.471c.063-.011.126-.014.2-.032a2.538,2.538,0,0,0,1.847.657,3.185,3.185,0,0,0,2.1-.667,3.167,3.167,0,0,0,2.1.669,2.535,2.535,0,0,0,1.846-.651c.074.018.136.013.2.024a16.1,16.1,0,0,1-.111,3.379H97.113A16.179,16.179,0,0,1,97,22.471Zm2.336-.366A2.515,2.515,0,0,1,99,22.8a2.959,2.959,0,0,1-1.518-.425l.178-.06a3.6,3.6,0,0,1,1.509-.219C99.228,22.1,99.283,22.1,99.338,22.1Zm-3.006-.585c.411-.481.445-.646.376-.858A2.262,2.262,0,0,0,96.269,20c-.116-.117-.28-.2-.836-.028a.681.681,0,0,1-.815-.238.25.25,0,0,0,.06,0,.2.2,0,0,1,.135.014.234.234,0,0,0,.208-.048c.062-.048.045-.014.079-.014s.066-.031.171-.046a.627.627,0,0,0,.244-.129c.059.017.15-.086.2-.145s.037.028.073.007.044.018.1.025a.812.812,0,0,0,.219-.062c.1.027.264-.155.264-.155.083.007.162-.1.162-.1.122.046.2-.034.268-.1a.276.276,0,0,1,.16-.107c.066-.018.071-.052.14-.12s.062-.016.1-.008.08-.039.1.008.021.075.1.014.038.216.041.3.052.143.172.164.22-.117.22-.117a.226.226,0,0,0,.233-.085c.028-.059.045-.056.065-.018s.12.021.165-.055.071-.011.11.031a.065.065,0,0,0,.109,0c.031-.038.049.017.107-.011s.089,0,.153.031.021.086.025.131.066.076.1.144.042.052.109.085a1.707,1.707,0,0,1,.24.176.132.132,0,0,0,.2-.034c.014.06.034.161.063.161s.055-.078.076-.126c.031.041.065.031.1.044a.977.977,0,0,0,.036.945h0c.014,0,.025-.018.036-.047a1.269,1.269,0,0,1,.014.344,1.6,1.6,0,0,0-.227.464,2.71,2.71,0,0,0-1.991.03A3.8,3.8,0,0,1,96.332,21.52Zm3.458-1.868a1.043,1.043,0,0,0,.087.3l-.037.071a.9.9,0,0,0-.131-.373A.208.208,0,0,0,99.79,19.652Zm.135-2.2.006-.013a1.046,1.046,0,0,0,.623.45.279.279,0,0,0-.077.056.83.83,0,0,1-.374-.1c-.051-.059-.075-.11-.116-.1s0-.062-.038-.088S99.838,17.628,99.925,17.453Zm.66.051a.692.692,0,0,1,.279.267c.014.038.026.074.036.109a.653.653,0,0,0-.258-.018,1.189,1.189,0,0,0-.351-.375A.444.444,0,0,1,100.585,17.5Zm.977,3.75.013.005a.631.631,0,0,0,.284.035,3.808,3.808,0,0,1,.311.28,3.076,3.076,0,0,0-.547.367,2.137,2.137,0,0,1-.085-.542C101.548,21.348,101.557,21.3,101.562,21.254Zm3.25,1.121a2.992,2.992,0,0,1-1.625.428,3.333,3.333,0,0,1-1.419-.3,2.881,2.881,0,0,1,1.358-.409,3.593,3.593,0,0,1,1.509.219Zm-2.825-2.323c.058-.264.106-.488.161-.449a.155.155,0,0,0,.185,0c.034-.046.045-.051.072-.005s.191.127.3-.061.079-.092.11-.021.117.1.213.028a1.707,1.707,0,0,1,.239-.176c.068-.033.072-.016.11-.085s.1-.1.1-.144-.042-.1.024-.131.1-.058.154-.031.075-.027.106.011a.066.066,0,0,0,.11,0c.038-.042.065-.106.11-.031s.143.093.164.055.038-.041.066.018a.224.224,0,0,0,.233.085s.1.137.219.117.169-.083.171-.164-.041-.36.041-.3.08.034.1-.014.062,0,.1-.008.034-.061.1.008.076.1.141.12a.284.284,0,0,1,.161.107c.069.071.144.151.268.1,0,0,.078.1.161.1,0,0,.169.182.264.155a.81.81,0,0,0,.22.062c.055-.007.065-.043.1-.025s.021-.065.072-.007.144.162.2.145a.62.62,0,0,0,.243.129c.107.015.138.046.172.046s.017-.034.08.014a.234.234,0,0,0,.209.048.193.193,0,0,1,.134-.014.362.362,0,0,0,.064,0,.684.684,0,0,1-.816.238c-.554-.171-.72-.089-.836.028a2.3,2.3,0,0,0-.44.665c-.067.212-.033.377.377.858a3.7,3.7,0,0,1-1.24-.193,2.7,2.7,0,0,0-2.017-.013c-.114.051-.219.1-.318.147-.073-.073-.256-.261-.323-.346a2.114,2.114,0,0,0,.041-.347.457.457,0,0,0-.062-.284A.458.458,0,0,1,101.987,20.052Zm8.6,2.036-1.5.57-.144.4-.336.219a11.749,11.749,0,0,0-.184-1.743l.543-.007,1-1.219-1.454.624-.131.424-1.426,1.082A10.941,10.941,0,0,1,107,24.317l.315-.212c.136,5.941-2.58,8.177-2.58,8.177a2.467,2.467,0,0,1-.864-.549,10.805,10.805,0,0,0,2.36-6.9l-.261.172a13.446,13.446,0,0,0,.037-1.859l-.457.346c-.011-.407-.034-.747-.062-.983a1.2,1.2,0,0,0,.794-.192,1.72,1.72,0,0,0,.419-.933c.041-.226-.007-.3-.144-.391a4.986,4.986,0,0,1-.542-.467s.236-.1.789.158c.6.282,1.049.145,1.558-.61l-.611.089.054-.421a.238.238,0,0,1,.032.016,2.039,2.039,0,0,0,.51.192c.137.028.133.009.219.06a.256.256,0,0,0,.206.051s.341.191.478,0a1.76,1.76,0,0,0,.2.1,1.077,1.077,0,0,0,.322.086.513.513,0,0,1,.206.055c.216.109.347.052.377,0s-.133-.223-.261-.328a.578.578,0,0,0-.237-.128c.042-.028.031-.068-.051-.168a1.5,1.5,0,0,0-.353-.234c0-.079-.306-.271-.489-.411s-.111-.133-.306-.335a19.045,19.045,0,0,0-1.537-1.232,11.381,11.381,0,0,0-2.717-1.588,2.424,2.424,0,0,0-2.106.014.638.638,0,0,0-.252.867,6,6,0,0,0,.318.687c.089.175.017.171-.024.2s0,.1-.037.088-.066.045-.118.1a.437.437,0,0,1-.2.074.179.179,0,0,1,.032-.144.611.611,0,0,0-.188-.054c.014-.029.069-.048.069-.048a.688.688,0,0,0-.22.006c.024-.037.045-.043.045-.043a.308.308,0,0,0-.305.117,1.1,1.1,0,0,0-.212-.254c-.082-.076-.124-.185-.212-.271a.239.239,0,0,0,.02-.217.467.467,0,0,0-.273-.215.119.119,0,0,0,.062-.119c-.009-.083-.087-.114-.169-.088a.594.594,0,0,0-.242.082.576.576,0,0,1-.12,0,.606.606,0,0,0-.286-.772,2.421,2.421,0,0,0-2.1-.014,11.382,11.382,0,0,0-2.715,1.588A18.83,18.83,0,0,0,93.633,18.7c-.2.2-.121.194-.305.335s-.5.332-.491.411a1.5,1.5,0,0,0-.353.234c-.082.1-.093.14-.053.168a.585.585,0,0,0-.236.128c-.127.1-.291.276-.261.328s.161.108.378,0a.512.512,0,0,1,.205-.055,1.074,1.074,0,0,0,.323-.086,1.712,1.712,0,0,0,.2-.1c.137.191.477,0,.477,0a.254.254,0,0,0,.205-.051c.086-.051.083-.032.219-.06a2.017,2.017,0,0,0,.512-.192.166.166,0,0,1,.035-.018l.054.423-.61-.089c.507.755.96.892,1.556.61.553-.26.789-.158.789-.158a4.892,4.892,0,0,1-.542.467c-.136.089-.184.165-.143.391a1.712,1.712,0,0,0,.418.933,1.2,1.2,0,0,0,.795.192c-.027.236-.051.576-.063.983l-.46-.35a13.4,13.4,0,0,0,.036,1.863l-.26-.172a10.786,10.786,0,0,0,2.36,6.9,2.482,2.482,0,0,1-.865.549s-2.717-2.236-2.578-8.177l.315.212a10.913,10.913,0,0,1,.057-1.877l-1.422-1.079-.131-.424-1.453-.624,1,1.219.542.007a11.439,11.439,0,0,0-.185,1.743l-.335-.219-.145-.4-1.5-.57,1.062,1.186.529-.033s-.541,5.261,1.245,8.091c1.487,2.355,3.651,2.374,5.621,1.052a12.988,12.988,0,0,1-.973,2.161,5.351,5.351,0,0,1,.8.07s-.082.342-.125.446-.034.279.168.289.467.031.467.031-.036.248-.042.379c-.006.177-.023.251.684.28.739-.029.691-.1.684-.28-.006-.131-.04-.379-.04-.379s.265-.025.468-.031.21-.183.167-.289-.127-.446-.127-.446a5.386,5.386,0,0,1,.8-.07,13.333,13.333,0,0,1-.976-2.161c1.972,1.322,4.137,1.305,5.626-1.052,1.785-2.83,1.244-8.091,1.244-8.091l.529.033Z" fill="#fff"/>
    <g id="Grupo_2226" data-name="Grupo 2226">
      <path id="Trazado_3972" data-name="Trazado 3972" d="M102.659,25.662a.641.641,0,0,0,.377-.137.481.481,0,0,0,.18.027.591.591,0,0,0,.51-.351.47.47,0,0,0,.289-.049.539.539,0,0,0,.246-.586.255.255,0,0,0,.031-.024.478.478,0,0,0,0-.668.1.1,0,0,0-.018-.018.239.239,0,0,0,.1-.19c0-.136-.165-.247-.317-.247s-.316.111-.316.247v0a.9.9,0,0,0-.149.08.361.361,0,0,0-.108.258.314.314,0,0,0-.072.034.342.342,0,0,0-.092.072.447.447,0,0,0-.131-.015.48.48,0,0,0-.188.04.631.631,0,0,0-.371-.114.828.828,0,0,0,.032,1.639Z" fill="#fff"/>
      <path id="Trazado_3973" data-name="Trazado 3973" d="M98.035,24.542a.2.2,0,0,0,.031.024.541.541,0,0,0,.244.586.472.472,0,0,0,.29.049.59.59,0,0,0,.509.351.475.475,0,0,0,.18-.027.639.639,0,0,0,.377.137.828.828,0,0,0,.031-1.639.64.64,0,0,0-.371.113A.532.532,0,0,0,99,24.111a.4.4,0,0,0-.1-.071.364.364,0,0,0-.082-.034.343.343,0,0,0-.1-.258.847.847,0,0,0-.161-.08v0a.292.292,0,0,0-.3-.247.276.276,0,0,0-.289.247.234.234,0,0,0,.093.19s-.013.011-.019.018A.477.477,0,0,0,98.035,24.542Z" fill="#fff"/>
      <path id="Trazado_3974" data-name="Trazado 3974" d="M101.172,28.756l.335-.507-.063-.241.263.036c.019.11.089.236.194.252a1.36,1.36,0,0,0,.282,0l.1-.116a2.092,2.092,0,0,0-.276-.218,5.12,5.12,0,0,0-.247-1.427c-.088-.252-.205-.26-.429-.23a3.908,3.908,0,0,0-.828.4l-.041.351.206.023s-.118.394-.159.535-.006.135.07.189a1.927,1.927,0,0,0,.365.122l-.083.365Z" fill="#fff"/>
      <path id="Trazado_3975" data-name="Trazado 3975" d="M101.111,24.344c-.162,0-.293-.288-.293-.644s.131-.642.293-.642.292.288.292.642S101.272,24.344,101.111,24.344Zm-.726-.04c.121.695.568.758.744.754a2.326,2.326,0,0,1-.045.438l.22.151a3.939,3.939,0,0,0,0-.707c.529-.076.637-.863.637-.863a1,1,0,0,0-.647.775,1.384,1.384,0,0,0-.139-.5.669.669,0,0,0,.6-.665.661.661,0,0,0-.215-.489l.111-.2-.233.046-.1-.179-.172.139-.1-.139-.109.159-.206-.117.057.188a.668.668,0,0,0,.185,1.257,1.2,1.2,0,0,1,.157.566A1.537,1.537,0,0,0,100.385,24.3Z" fill="#fff"/>
      <path id="Trazado_3976" data-name="Trazado 3976" d="M101.7,30.019a.536.536,0,0,1,0-.43h-.805a.536.536,0,0,0,0,.43Z" fill="#fff"/>
      <path id="Trazado_3977" data-name="Trazado 3977" d="M100.891,31.026a.944.944,0,0,0,0,.576h.805a.944.944,0,0,1,0-.576Z" fill="#fff"/>
      <path id="Trazado_3978" data-name="Trazado 3978" d="M101.887,30.451l.179-.288h-1.23l-.135-.144h-.513l.064.144h.123l.132.288Z" fill="#fff"/>
      <path id="Trazado_3979" data-name="Trazado 3979" d="M101.876,31.747h-1.041l-.075-.144h-.27l.082.163.22.122h1.061l.214-.124.03-.161h-.173Z" fill="#fff"/>
    </g>
    <path id="Trazado_3980" data-name="Trazado 3980" d="M134.67,21.5a6.488,6.488,0,0,0-4.39-1.742c-3.81,0-6.017,2.857-5.994,6.3,0,2.974,1.766,5.855,5.994,5.855a5.808,5.808,0,0,0,3.973-1.441v-3.3h-4.53V24.84h6.945v6.668a8.186,8.186,0,0,1-6.388,2.834c-5.97,0-8.549-3.973-8.549-8.294,0-4.692,3-8.688,8.549-8.688a8.55,8.55,0,0,1,6.017,2.463Z" fill="#fff"/>
    <path id="Trazado_3981" data-name="Trazado 3981" d="M147.072,31.94c4.059,0,5.762-2.87,5.762-6,0-3.009-1.726-6.134-5.715-6.2-3.779,0-5.809,2.636-5.809,6.2C141.357,28.837,143.037,31.94,147.072,31.94Zm8.352-6.042c0,4.408-2.684,8.444-8.352,8.444s-8.351-4.129-8.351-8.421a8.167,8.167,0,0,1,8.4-8.561C152.694,17.384,155.424,21.489,155.424,25.9Z" fill="#fff"/>
    <path id="Trazado_3982" data-name="Trazado 3982" d="M165.649,34.342h-2.818l-7.008-16.93h3.034l5.371,13.7,5.395-13.7h3.01Z" fill="#fff"/>
    <path id="Trazado_3983" data-name="Trazado 3983" d="M174.4,32.634a1.7,1.7,0,1,1-3.4,0A1.7,1.7,0,0,1,174.4,32.634Z" fill="#fff"/>
    <path id="Trazado_3984" data-name="Trazado 3984" d="M190.88,31.909a8.58,8.58,0,0,1-6.151,2.433c-5.942,0-8.609-4.093-8.632-8.4s2.783-8.585,8.632-8.585a8.369,8.369,0,0,1,5.988,2.479l-1.755,1.684a6.014,6.014,0,0,0-4.233-1.684,5.74,5.74,0,0,0-6.035,6.082c.023,3,1.8,5.965,6.035,5.965a6.347,6.347,0,0,0,4.35-1.778Z" fill="#fff"/>
    <path id="Trazado_3985" data-name="Trazado 3985" d="M201.408,31.946c4.044,0,5.745-2.86,5.745-5.976,0-3-1.723-6.116-5.7-6.186-3.766,0-5.79,2.627-5.79,6.186C195.709,28.854,197.383,31.946,201.408,31.946Zm8.325-6.023c0,4.4-2.676,8.419-8.325,8.419s-8.327-4.116-8.327-8.4a8.14,8.14,0,0,1,8.371-8.534C207.012,17.435,209.733,21.528,209.733,25.923Z" fill="#fff"/>
    <rect id="Rectángulo_796" data-name="Rectángulo 796" width="1.827" height="10.189" transform="translate(114.939 13.963)" fill="#facf15"/>
    <rect id="Rectángulo_797" data-name="Rectángulo 797" width="1.827" height="6.793" transform="translate(114.939 24.152)" fill="#05569d"/>
    <rect id="Rectángulo_798" data-name="Rectángulo 798" width="1.827" height="6.793" transform="translate(114.939 30.945)" fill="#d01f3e"/>
  </g>
</svg>
