<svg xmlns="http://www.w3.org/2000/svg" viewBox="0 0 35.19 31.05"><g id="e4e2848e-57d2-426d-90f4-f127e0585a68" data-name="Capa 1"><path d="M34,20.73l-.43-4.91a2.07,2.07,0,0,0-.43-4.09,1.9,1.9,0,0,0-.63.11L30.55,7.08a1,1,0,0,0,.5-.87,1,1,0,0,0-1-1,1,1,0,0,0-.45.11L25.8,1a.82.82,0,0,0,.07-.31A.68.68,0,0,0,24.55.43H15.47a.69.69,0,0,0-1.33.26s0,0,0,0L10.08,2.52A1.73,1.73,0,1,0,7.45,4.71L4.1,11.4A2.76,2.76,0,0,0,2.76,11a2.76,2.76,0,0,0,0,5.52,2.3,2.3,0,0,0,.26,0v5.31a1,1,0,0,0-.6.93A1,1,0,0,0,4,23.6L11.15,27a1.58,1.58,0,0,0-.11.58,1.72,1.72,0,0,0,3.25.78L19,30s0,0,0,.06A1,1,0,1,0,21,30s0-.08,0-.13l4.47-1.83a2.37,2.37,0,0,0,2.11,1.27,2.41,2.41,0,0,0,2-3.76l3.62-3a1,1,0,0,0,.59.21,1,1,0,0,0,1-1A1,1,0,0,0,34,20.73Zm-1.21,1a1.06,1.06,0,0,0,.11.44l-3.6,3a2.12,2.12,0,0,0-.55-.39l3.65-9.06a2.09,2.09,0,0,0,.66.13l.43,4.91A1,1,0,0,0,32.77,21.73ZM14.46,27.26a1.75,1.75,0,0,0-.7-1.07l4.83-7a3.43,3.43,0,0,0,1.76.5,3.51,3.51,0,0,0,1.55-.37L26,25.13a2.39,2.39,0,0,0-.78,1.63Zm-9-14.06,7.37-1.79a1.18,1.18,0,0,0,.19.41l-4.42,6.5a1.55,1.55,0,0,0-.31,0,1.41,1.41,0,0,0-.68.19L5,15.36a2.79,2.79,0,0,0,.48-1.56A2.9,2.9,0,0,0,5.45,13.2Zm4.89-9.66H20a2,2,0,0,0,.27.93L14.72,9.79a1.37,1.37,0,0,0-.58-.13,1.28,1.28,0,0,0-.64.17l-3.86-5A1.72,1.72,0,0,0,10.34,3.54ZM25.18,1.38a.85.85,0,0,0,.23,0L29,5.48,24.12,3.77a3.16,3.16,0,0,0,0-.32,2.07,2.07,0,0,0-3.89-1L16.25,1h8.3A.69.69,0,0,0,25.18,1.38ZM27.6,24.49a2.45,2.45,0,0,0-1.2.33L22.34,19a3.43,3.43,0,0,0,1.46-2.82c0-.11,0-.22,0-.33l7.34-1.59a2,2,0,0,0,.81,1.19L28.25,24.6A2.33,2.33,0,0,0,27.6,24.49ZM15.15,10.1,20.6,4.89a2,2,0,0,0,.77.5l-1,7.38h0a3.42,3.42,0,0,0-2.55,1.16l-2.47-2.19a1.35,1.35,0,0,0,.19-.69A1.39,1.39,0,0,0,15.15,10.1Zm15.9,3.67-7.36,1.6a3.44,3.44,0,0,0-2.78-2.55l1-7.32.2,0A2.06,2.06,0,0,0,23.4,5l8.05,7.55A2.15,2.15,0,0,0,31.05,13.77Zm-22,4.77,4.32-6.35a1.36,1.36,0,0,0,.75.23,1.42,1.42,0,0,0,.86-.3l2.47,2.2a3.53,3.53,0,0,0-.57,1.89,3.42,3.42,0,0,0,1.27,2.65L13.28,26a1.72,1.72,0,0,0-.52-.09,1.64,1.64,0,0,0-.62.13l-3-5.25a1.39,1.39,0,0,0,.53-1.09A1.36,1.36,0,0,0,9.07,18.54Zm23-6.49-.21.16-8-7.55A2.46,2.46,0,0,0,24,4.27L29,6a1.29,1.29,0,0,0,0,.19,1,1,0,0,0,1,1h0ZM14.36,1.19a.71.71,0,0,0,.47.19.73.73,0,0,0,.51-.22L20.08,3l0,.07H10.29V3ZM7.88,5a1.72,1.72,0,0,0,.74.18,1.63,1.63,0,0,0,.55-.1l3.92,5.07a1.4,1.4,0,0,0-.31.74L5.29,12.71a2.73,2.73,0,0,0-.76-1ZM4.39,23.19a1,1,0,0,0,.09-.42,1,1,0,0,0-.94-1V16.44a2.83,2.83,0,0,0,1.16-.68l2.51,3a1.34,1.34,0,0,0-.31.85A1.38,1.38,0,0,0,8.28,21,1.32,1.32,0,0,0,8.67,21l3,5.28a2.13,2.13,0,0,0-.3.3ZM20.82,29.4a1,1,0,0,0-1.66.06l-4.7-1.57a.37.37,0,0,0,0-.11l10.75-.5c0,.1,0,.2.07.3Z" fill="#0066cd"/></g></svg>