<svg xmlns="http://www.w3.org/2000/svg" width="35.189" height="31.049" viewBox="0 0 35.189 31.049">
  <g id="icono_inicio_home" transform="translate(-90.811 -169.674)">
    <g id="Grupo_216" data-name="Grupo 216">
      <path id="Trazado_351" data-name="Trazado 351" d="M97.711,173.124a1.725,1.725,0,1,1,1.724,1.725,1.724,1.724,0,0,1-1.724-1.725" fill="#fff"/>
      <path id="Trazado_352" data-name="Trazado 352" d="M90.811,183.474a2.76,2.76,0,1,1,2.76,2.76,2.76,2.76,0,0,1-2.76-2.76" fill="#fff"/>
      <path id="Trazado_353" data-name="Trazado 353" d="M101.85,197.274A1.725,1.725,0,1,1,103.575,199a1.725,1.725,0,0,1-1.725-1.725" fill="#fff"/>
      <path id="Trazado_354" data-name="Trazado 354" d="M107.715,185.889a3.45,3.45,0,1,1,3.45,3.45,3.45,3.45,0,0,1-3.45-3.45" fill="#fff"/>
      <path id="Trazado_355" data-name="Trazado 355" d="M110.82,173.124a2.07,2.07,0,1,1,2.07,2.07,2.07,2.07,0,0,1-2.07-2.07" fill="#fff"/>
      <path id="Trazado_356" data-name="Trazado 356" d="M121.86,183.474a2.07,2.07,0,1,1,2.07,2.07,2.07,2.07,0,0,1-2.07-2.07" fill="#fff"/>
      <path id="Trazado_357" data-name="Trazado 357" d="M103.575,180.714a1.38,1.38,0,1,1,1.38,1.38,1.38,1.38,0,0,1-1.38-1.38" fill="#fff"/>
      <path id="Trazado_358" data-name="Trazado 358" d="M104.955,170.364a.69.69,0,1,1,.691.69.69.69,0,0,1-.691-.69" fill="#fff"/>
      <path id="Trazado_359" data-name="Trazado 359" d="M119.79,175.884a1.035,1.035,0,1,1,1.035,1.035,1.035,1.035,0,0,1-1.035-1.035" fill="#fff"/>
      <path id="Trazado_360" data-name="Trazado 360" d="M115.305,170.364a.69.69,0,1,1,.69.69.69.69,0,0,1-.69-.69" fill="#fff"/>
      <path id="Trazado_361" data-name="Trazado 361" d="M123.585,191.409a1.035,1.035,0,1,1,1.035,1.035,1.035,1.035,0,0,1-1.035-1.035" fill="#fff"/>
      <path id="Trazado_362" data-name="Trazado 362" d="M116,196.584A2.415,2.415,0,1,1,118.41,199,2.415,2.415,0,0,1,116,196.584" fill="#fff"/>
      <path id="Trazado_363" data-name="Trazado 363" d="M97.711,189.339a1.38,1.38,0,1,1,1.379,1.38,1.379,1.379,0,0,1-1.379-1.38" fill="#fff"/>
      <path id="Trazado_364" data-name="Trazado 364" d="M93.226,192.444a1.035,1.035,0,1,1,1.034,1.035,1.034,1.034,0,0,1-1.034-1.035" fill="#fff"/>
      <path id="Trazado_365" data-name="Trazado 365" d="M109.785,199.689a1.035,1.035,0,1,1,1.035,1.034,1.035,1.035,0,0,1-1.035-1.034" fill="#fff"/>
      <path id="Trazado_366" data-name="Trazado 366" d="M103.43,197.539,98.7,189.314l-4.922-5.978L99.1,172.693l13.7.014,8.045,2.8,3.189,7.8-.04.1-5.409,13.436Zm-9.035-14.272,4.747,5.77,4.579,7.971,14.511-.675,5.246-13.031-3.021-7.384-7.783-2.708H99.423Z" fill="#fff"/>
      <path id="Trazado_367" data-name="Trazado 367" d="M103.49,197.431l-9.661-4.652V183.3h.517v9.152l8.968,4.318,7.464-10.857.427.293Z" fill="#fff"/>
      <path id="Trazado_368" data-name="Trazado 368" d="M111.185,186.579l-6.607-5.879-5.865-7.59.41-.317,5.689,7.363,8.258-7.9Zm-6.02-6.044,5.635,5.009,1.565-11.9Z" fill="#fff"/>
      <path id="Trazado_369" data-name="Trazado 369" d="M99.132,189.312l-.428-.291,5.487-8.07-10.732,2.6-.122-.5,12.037-2.918Z" fill="#fff"/>
      <path id="Trazado_370" data-name="Trazado 370" d="M118.026,196.559l-7.468-10.668,13.145-2.842.109.506-12.384,2.677,7.021,10.031Z" fill="#fff"/>
      <rect id="Rectángulo_48" data-name="Rectángulo 48" width="0.517" height="15.133" transform="matrix(0.684, -0.73, 0.73, 0.684, 112.541, 173.14)" fill="#fff"/>
      <path id="Trazado_371" data-name="Trazado 371" d="M110.829,199.964l-7.336-2.445.164-.491,7.154,2.385,7.464-3.053,6.076-5.063-.678-7.8.516-.045.7,8.07-6.381,5.3Z" fill="#fff"/>
      <path id="Trazado_372" data-name="Trazado 372" d="M99.541,173.361l-.21-.473,6.307-2.8,7.344,2.787-.183.484-7.146-2.712Z" fill="#fff"/>
      <path id="Trazado_373" data-name="Trazado 373" d="M120.63,176.054l-4.752-5.431H105.646v-.518h10.467l4.907,5.608Z" fill="#fff"/>
    </g>
  </g>
</svg>
