<svg id="adbe2f3b-563d-4bb0-9bad-7f3e05690939" data-name="Capa 1" xmlns="http://www.w3.org/2000/svg" viewBox="0 0 512 512"><path d="M25.56,263.82c6.36-65.13,24-90.68,24-90.68s4.86-40,41.29-83,69.4-58.45,69.4-58.45S31.92,68.42,5.06,201.45,66.87,406.08,66.87,406.08,19.22,329,25.56,263.82Z" fill="#f2f2f2" fill-rule="evenodd"/><path d="M452.58,73.6C345.5-41.18,203.35,8.24,180.84,25.23c0,0,90.81-28.38,165.2,16.13,66.38,39.71,80.11,68.1,80.11,68.1s46.3,47.37,59.46,97.94,3.72,116.07,3.72,116.07S559.65,188.37,452.58,73.6Z" fill="#f2f2f2" fill-rule="evenodd"/><path d="M305.24,33.26c-77-20-132.65-1.18-132.65-1.18s-36.16,16.35-66.53,52.18c-40.95,51-47.44,90.9-47.44,90.9S99.72,89.09,192.41,62.31c147.44-39.39,225.5,52.79,225.5,52.79S380.82,58.07,305.24,33.26Z" fill="#f2f2f2" fill-rule="evenodd"/><path d="M420.77,117.52s62.48,79.1,34.94,190.07c-24.57,99-111.34,139.2-111.34,139.2s59.52-17,90-50.78c32.16-35.61,45-59.65,45-59.65s15.1-39.65,1-112.17C466.73,153.9,420.77,117.52,420.77,117.52Z" fill="#f2f2f2" fill-rule="evenodd"/><path d="M340.67,449.21s-138.23,40.33-228.78-64.08S56.13,180.81,56.13,180.81s-26,44.62-22.29,108.4C37.75,356.34,76.36,408.5,76.36,408.5S135.12,468.55,216,473.4C295.22,478.14,340.67,449.21,340.67,449.21Z" fill="#f2f2f2" fill-rule="evenodd"/><path d="M422.43,418.18c-29.72,23-75.58,37.89-75.58,37.89s-52.91,36.94-140.4,25-126-61.25-126-61.25S166.81,548.15,329.27,502c132.24-41.85,153.47-157.16,153.47-157.16S452.17,395.14,422.43,418.18Z" fill="#f2f2f2" fill-rule="evenodd"/><path d="M180.87,251.37c5.38-6.92,7.45-14.62,5.64-23.16a23.74,23.74,0,0,0-22.86-18.49q-25-.22-50.08,0c-10.43.07-20.56,7.81-22.43,17.92-1.54,8.37-1.84,17-2.64,25.47-.56,6-1.12,11.93-1.52,17.91-.32,4.89-.85,9.82-.51,14.68.63,8.89,9.32,16.6,18.53,16.67,16.06.13,32.13-.06,48.19.12a32.2,32.2,0,0,0,25.15-10.68c6.92-7.51,9.6-16.35,7.79-26.35a26,26,0,0,0-6.31-12.55,2.34,2.34,0,0,1,.15-.41ZM168.12,273a12.17,12.17,0,0,1-12.22,11.21H109c-3.1,0-4.39-1.18-4.2-4.17.34-5.37.88-10.73,1.25-16.1.1-1.39.93-1.42,2-1.41h13c12.08,0,24.16.09,36.23,0C163.71,262.45,168.46,267.36,168.12,273Zm-.71-33.44a9,9,0,0,1-8.21,4.7q-24.93,0-49.87,0a12.78,12.78,0,0,1-1.53-.22c.36-4.15.64-8,1-11.92.32-3.08,1.75-4.26,4.91-4.26h46.73C167,227.89,170.64,234.08,167.41,239.58Z" fill="#f2f2f2" fill-rule="evenodd"/><path d="M348.53,228.65a11.94,11.94,0,0,1,5.48-1.47c22.56-.09,45.13-.06,67.69-.06h2.51c.49-5.94.94-11.56,1.43-17.45h-2.43c-22.92,0-45.83.05-68.75,0a25.77,25.77,0,0,0-19.33,8.09c-5.74,5.93-8.47,13-7,21.11,1.62,9,7.43,14.7,16.32,17.41,13.11,4,26.27,7.82,39.41,11.71,5.57,1.65,11.16,3.24,16.73,4.92,2.94.89,4.62,2.85,4.73,5.29a6.88,6.88,0,0,1-4.3,6.18,11.8,11.8,0,0,1-3.88.61q-33.94,0-67.9,0h-2.58c-.5,5.87-1,11.53-1.47,17.45H328q34.14,0,68.31,0c10.36,0,18.08-4.5,23.3-12.91,8.42-13.56,2-29.34-13.6-33.93q-16.23-4.77-32.47-9.53-11.55-3.39-23.09-6.82c-2.27-.67-4.08-2-4.55-4.29A5.56,5.56,0,0,1,348.53,228.65Z" fill="#f2f2f2" fill-rule="evenodd"/><path d="M295.87,209.73c-7.39-.12-14.8,0-22.2,0v0c-3.7,0-7.4,0-11.1,0-4.4,0-8.89-.47-13.18.21-14,2.24-23.34,10.23-27.07,23.44-1.62,5.75-1.59,12-2.19,18s-1.22,12.06-1.51,18.1A56.14,56.14,0,0,0,219,282c2,11.21,13.08,20.19,24.79,20.33,13.89.17,27.79.05,41.68.08,11.89,0,20.7-5.33,27.36-14.5,4.75-6.56,5.2-14.16,5.77-21.76.45-6,1.12-11.93,1.49-17.9.33-5.43.91-10.9.5-16.29C319.64,220.14,308.11,209.94,295.87,209.73Zm5.44,42.91c-.5,6.18-1.13,12.34-1.54,18.52-.31,4.53-1.59,8.6-5.78,11a14.3,14.3,0,0,1-6.42,1.94c-6.76.25-13.54.09-20.32.09s-13.55,0-20.32,0c-5.82,0-10.3-4.22-10.07-9.86.24-6,.86-12.08,1.36-18.12.48-5.7,1.13-11.39,1.49-17.1a12.06,12.06,0,0,1,12.11-11.27h40.23c6.16,0,10.6,4.31,10.34,10.26C302.18,243,301.71,247.81,301.31,252.64Z" fill="#f2f2f2" fill-rule="evenodd"/><path d="M208.69,302.28c2.6-30.9,5.2-61.66,7.79-92.53H198.2q-3.9,46.31-7.81,92.53Z" fill="#f2f2f2" fill-rule="evenodd"/></svg>